# xmcd
#
# Track frame offsets:
#	150
#	11149
#	21034
#	32959
#	42446
#	54920
#	68249
#	82268
#	92519
#
# Disc length: 1636 seconds
#
# Revision: 0
# Processed by: cddbd v1.4PL0 Copyright (c) Steve Scherf et al.
# Submitted via: dBpowerAMP V4.0
#
DISCID=70066209
DTITLE=Chico Che - Quien Pompo
DYEAR=1900
DGENRE=Cabaret
TTITLE0=Quien Pompo
TTITLE1=Cascarita de Banana
TTITLE2=El Caballito
TTITLE3=Huele a Gas
TTITLE4=Chico Rock
TTITLE5=Nada
TTITLE6=Mañanitas de Cristal
TTITLE7=El Pajarito
TTITLE8=Popurri Señorita catalina, El baile del conejito el Buey De La Barranca Colache No Estaba Muerto
EXTD=
EXTT0=
EXTT1=
EXTT2=
EXTT3=
EXTT4=
EXTT5=
EXTT6=
EXTT7=
EXTT8=
PLAYORDER=
